mtllib cattail.mtl
o cattail
v 0 0 0.04
v 0 0 -0.04
v 0.0111 0.3333 0.0301
v 0.0111 0.3333 -0.0301
v 0.0444 0.6667 0.0185
v 0.0444 0.6667 -0.0185
v 0.1 1 0
v 0.0275 0.68 0
v 0.0138 0.68 0.0238
v -0.0137 0.68 0.0238
v -0.0275 0.68 0
v -0.0138 0.68 -0.0238
v 0.0138 0.68 -0.0238
v 0.055 0.745 0
v 0.0275 0.745 0.0476
v -0.0275 0.745 0.0476
v -0.055 0.745 0
v -0.0275 0.745 -0.0476
v 0.0275 0.745 -0.0476
v 0.055 0.875 0
v 0.0275 0.875 0.0476
v -0.0275 0.875 0.0476
v -0.055 0.875 0
v -0.0275 0.875 -0.0476
v 0.0275 0.875 -0.0476
v 0.0248 0.94 0
v 0.0124 0.94 0.0214
v -0.0124 0.94 0.0214
v -0.0247 0.94 0
v -0.0124 0.94 -0.0214
v 0.0124 0.94 -0.0214
v 0 0.97 0
vn 0.9994 -0.0333 0
vn 0.9994 -0.0333 0
vn 0.995 -0.0995 0
vn 0.995 -0.0995 0
vn 0.9864 -0.1644 0
vn 0.8132 -0.344 0.4695
vn 0.8132 -0.344 0.4695
vn 0 -0.344 0.939
vn 0 -0.344 0.939
vn -0.8132 -0.344 0.4695
vn -0.8132 -0.344 0.4695
vn -0.8132 -0.344 -0.4695
vn -0.8132 -0.344 -0.4695
vn 0 -0.344 -0.939
vn 0 -0.344 -0.939
vn 0.8132 -0.344 -0.4695
vn 0.8132 -0.344 -0.4695
vn 0.866 0 0.5
vn 0.866 0 0.5
vn 0 0 1
vn 0 0 1
vn -0.866 0 0.5
vn -0.866 0 0.5
vn -0.866 0 -0.5
vn -0.866 0 -0.5
vn 0 0 -1
vn 0 0 -1
vn 0.866 0 -0.5
vn 0.866 0 -0.5
vn 0.8032 0.3738 0.4638
vn 0.8032 0.3738 0.4638
vn 0 0.3738 0.9275
vn 0 0.3738 0.9275
vn -0.8032 0.3738 0.4638
vn -0.8032 0.3738 0.4638
vn -0.8032 0.3738 -0.4638
vn -0.8032 0.3738 -0.4638
vn 0 0.3738 -0.9275
vn 0 0.3738 -0.9275
vn 0.8032 0.3738 -0.4638
vn 0.8032 0.3738 -0.4638
vn 0.7047 0.5813 0.4068
vn 0 0.5813 0.8137
vn -0.7047 0.5813 0.4068
vn -0.7047 0.5813 -0.4068
vn 0 0.5813 -0.8137
vn 0.7047 0.5813 -0.4068
usemtl reed_base
f 1//1 2//1 4//1
f 1//2 4//2 3//2
usemtl reed_mid
f 3//3 4//3 6//3
f 3//4 6//4 5//4
usemtl reed_tip
f 5//5 6//5 7//5
usemtl cattail_head
f 8//6 14//6 15//6
f 8//7 15//7 9//7
f 9//8 15//8 16//8
f 9//9 16//9 10//9
f 10//10 16//10 17//10
f 10//11 17//11 11//11
f 11//12 17//12 18//12
f 11//13 18//13 12//13
f 12//14 18//14 19//14
f 12//15 19//15 13//15
f 13//16 19//16 14//16
f 13//17 14//17 8//17
f 14//18 20//18 21//18
f 14//19 21//19 15//19
f 15//20 21//20 22//20
f 15//21 22//21 16//21
f 16//22 22//22 23//22
f 16//23 23//23 17//23
f 17//24 23//24 24//24
f 17//25 24//25 18//25
f 18//26 24//26 25//26
f 18//27 25//27 19//27
f 19//28 25//28 20//28
f 19//29 20//29 14//29
f 20//30 26//30 27//30
f 20//31 27//31 21//31
f 21//32 27//32 28//32
f 21//33 28//33 22//33
f 22//34 28//34 29//34
f 22//35 29//35 23//35
f 23//36 29//36 30//36
f 23//37 30//37 24//37
f 24//38 30//38 31//38
f 24//39 31//39 25//39
f 25//40 31//40 26//40
f 25//41 26//41 20//41
f 26//42 32//42 27//42
f 27//43 32//43 28//43
f 28//44 32//44 29//44
f 29//45 32//45 30//45
f 30//46 32//46 31//46
f 31//47 32//47 26//47
