mtllib grass.mtl
o grass
v 0 0 0.055
v 0 0 -0.055
v 0.0311 0.2333 0.039
v 0.0311 0.2333 -0.039
v 0.1244 0.4667 0.0216
v 0.1244 0.4667 -0.0216
v 0.28 0.7 0
v -0.0323 0 0.0445
v 0.0323 0 -0.0445
v 0.0023 0.2833 0.0498
v 0.0481 0.2833 -0.0132
v 0.088 0.5667 0.0906
v 0.1134 0.5667 0.0557
v 0.2265 0.85 0.1646
v -0.0523 0 0.017
v 0.0523 0 -0.017
v -0.0274 0.3333 0.0416
v 0.0467 0.3333 0.0175
v 0.0179 0.6667 0.125
v 0.059 0.6667 0.1117
v 0.0865 1 0.2663
v -0.0523 0 -0.017
v 0.0523 0 0.017
v -0.0467 0.2583 0.0175
v 0.0274 0.2583 0.0416
v -0.059 0.5167 0.1117
v -0.0179 0.5167 0.125
v -0.0865 0.775 0.2663
v -0.0323 0 -0.0445
v 0.0323 0 0.0445
v -0.0481 0.3083 -0.0132
v -0.0023 0.3083 0.0498
v -0.1134 0.6167 0.0557
v -0.088 0.6167 0.0906
v -0.2265 0.925 0.1646
vn 0.9912 -0.1322 0
vn 0.9912 -0.1322 0
vn 0.9285 -0.3714 0
vn 0.9285 -0.3714 0
vn 0.8321 -0.5547 0
vn 0.8042 -0.1091 0.5843
vn 0.8042 -0.1091 0.5843
vn 0.7684 -0.3129 0.5583
vn 0.7684 -0.3129 0.5583
vn 0.7092 -0.4813 0.5152
vn 0.3077 -0.0929 0.9469
vn 0.3077 -0.0929 0.9469
vn 0.2976 -0.2696 0.9158
vn 0.2976 -0.2696 0.9158
vn 0.28 -0.4229 0.8618
vn -0.3068 -0.1196 0.9442
vn -0.3068 -0.1196 0.9442
vn -0.2906 -0.3398 0.8945
vn -0.2906 -0.3398 0.8945
vn -0.2647 -0.5158 0.8148
vn -0.8049 -0.1004 0.5848
vn -0.8049 -0.1004 0.5848
vn -0.7743 -0.2897 0.5626
vn -0.7743 -0.2897 0.5626
vn -0.7223 -0.4504 0.5248
usemtl grass_base
f 1//1 2//1 4//1
f 1//2 4//2 3//2
f 8//6 9//6 11//6
f 8//7 11//7 10//7
f 15//11 16//11 18//11
f 15//12 18//12 17//12
f 22//16 23//16 25//16
f 22//17 25//17 24//17
f 29//21 30//21 32//21
f 29//22 32//22 31//22
usemtl grass_mid
f 3//3 4//3 6//3
f 3//4 6//4 5//4
f 10//8 11//8 13//8
f 10//9 13//9 12//9
f 17//13 18//13 20//13
f 17//14 20//14 19//14
f 24//18 25//18 27//18
f 24//19 27//19 26//19
f 31//23 32//23 34//23
f 31//24 34//24 33//24
usemtl grass_tip
f 5//5 6//5 7//5
f 12//10 13//10 14//10
f 19//15 20//15 21//15
f 26//20 27//20 28//20
f 33//25 34//25 35//25
