mtllib rock.mtl
o rock
v -0.5713 0.9837 0
v 0.5896 1.0044 0
v -0.5596 0 0
v 0.5442 0 0
v 0 0 0.6915
v 0 0.757 0.7611
v 0 0 -0.7007
v 0 0.6934 -0.6451
v 0.9468 0.34 -0.4598
v 0.8655 0.34 0.4203
v -0.9019 0.34 -0.4379
v -1.0068 0.34 0.4889
v -0.913 0.733 0.274
v -0.5657 0.5835 0.7192
v -0.383 1.0383 0.4869
v 0.3508 0.9795 0.4459
v 0 1.1437 0
v 0.3243 0.9313 -0.4123
v -0.3116 0.9081 -0.3961
v -0.4745 0.5442 -0.6032
v -0.7716 0.6721 -0.2316
v -1.0986 0.34 0
v 0.5277 0.5671 0.6709
v 0.906 0.7299 0.2719
v -0.5764 0.0919 0.7328
v 0 0.34 0.8056
v -0.7736 0.007 -0.2322
v -0.859 0 0.2578
v 0 0.34 -0.8255
v -0.505 0.1226 -0.642
v 0.8611 0.7106 -0.2584
v 0.5462 0.5751 -0.6944
v 0.8142 0 0.2444
v 0.5149 0.1184 0.6545
v 0.3218 0 0.4092
v -0.3209 0 0.408
v 0 0 0
v -0.2993 0 -0.3806
v 0.2783 0 -0.3538
v 0.5027 0.1236 -0.6391
v 0.8191 0 -0.2458
v 1.1896 0.34 0
v -0.8484 0.9379 0.1543
v -0.7265 0.9324 0.4131
v -0.5027 1.036 0.2366
v -0.8431 0.4743 0.6546
v -0.7664 0.6699 0.5143
v -0.9564 0.5407 0.378
v -0.2002 0.9423 0.6876
v -0.5218 0.8422 0.6633
v -0.2988 0.6874 0.7793
v -0.1811 1.0784 0.2303
v -0.2824 1.0322 0
v 0.1817 0.8867 0.6241
v 0 1.0517 0.4962
v 0.293 1.0582 0
v 0.1784 1.0672 0.2268
v 0.4875 1.015 0.2294
v -0.1698 1.0322 -0.2158
v -0.4539 0.9684 -0.2136
v 0.4608 0.9781 -0.2169
v 0.1701 1.0336 -0.2163
v -0.1499 0.7908 -0.5147
v 0 0.9447 -0.4216
v 0.1598 0.8208 -0.5489
v -0.5809 0.8137 -0.3303
v -0.7592 0.875 -0.1381
v -0.241 0.6202 -0.6284
v -0.3846 0.7101 -0.4889
v -0.8315 0.5145 -0.3286
v -0.6836 0.6342 -0.4588
v -0.6911 0.4501 -0.5366
v -0.9784 0.7611 0
v -1.1128 0.34 -0.2484
v -0.9888 0.5303 -0.1327
v -1.0592 0.5439 0.1422
v -1.1097 0.34 0.2477
v 0.6568 0.8755 0.3734
v 0.8024 0.9055 0.146
v 0.2733 0.6577 0.7127
v 0.4405 0.764 0.56
v 0.935 0.5362 0.3695
v 0.7897 0.6799 0.5299
v 0.7491 0.4594 0.5817
v -0.2996 0.469 0.8517
v 0 0.5566 0.86
v -0.8799 0.1998 0.6832
v -0.6315 0.34 0.8028
v 0 0.1402 0.7934
v -0.2885 0.2158 0.8202
v -0.2801 0.0144 0.7304
v -1.0598 0.136 0.1422
v -0.918 0.1474 0.3628
v -0.8496 0.1617 -0.3358
v -1.0364 0.1405 -0.1391
v -0.8041 0 0.1463
v -1.0061 0 0
v -0.7423 0 -0.135
v -0.5041 0.34 -0.6408
v -0.6716 0.233 -0.5215
v 0 0.5276 -0.7451
v -0.2597 0.4518 -0.7383
v -0.2703 0.0258 -0.7049
v -0.2717 0.2231 -0.7724
v 0 0.137 -0.8064
v 0.4509 0.774 -0.5733
v 0.2816 0.6675 -0.7345
v 0.7765 0.8872 -0.1412
v 0.608 0.8357 -0.3457
v 0.7649 0.4619 -0.5939
v 0.706 0.6439 -0.4738
v 0.9312 0.5354 -0.368
v 0.7271 0 0.1323
v 0.6068 0 0.345
v 0.4377 0 0.206
v 0.7158 0.2259 0.5558
v 0.7082 0.0352 0.4753
v 0.8769 0.156 0.3465
v 0.1695 0 0.5823
v 0.4381 0 0.557
v 0.2738 0.0217 0.7141
v 0.1688 0 0.2146
v 0.2696 0 0
v -0.1697 0 0.5827
v 0 0 0.468
v -0.2709 0 0
v -0.1713 0 0.2178
v -0.4451 0 0.2095
v 0.1499 0 -0.1906
v 0.4034 0 -0.1899
v -0.418 0 -0.1967
v -0.1508 0 -0.1917
v 0.1572 0 -0.5397
v 0 0 -0.3934
v -0.1649 0 -0.5663
v 0.5448 0 -0.3097
v 0.6951 0 -0.1264
v 0.252 0.047 -0.6572
v 0.3957 0 -0.503
v 0.9132 0.1484 -0.3609
v 0.7441 0.0197 -0.4993
v 0.7921 0.2138 -0.6151
v 0.8275 0 0
v 1.0729 0.34 -0.2395
v 0.9517 0.1568 -0.1277
v 0.9558 0.156 0.1283
v 1.0843 0.34 0.242
v 0.2869 0.2165 0.8157
v 0.5336 0.34 0.6783
v 0.2809 0.4609 0.7985
v -0.6469 0 0.3678
v -0.4558 0 0.5795
v -0.8077 0 0.542
v -0.4351 0 -0.5531
v -0.553 0 -0.3144
v -0.6549 0.0581 -0.4395
v 0.5784 0.34 -0.7353
v 0.2662 0.2254 -0.7567
v 0.2799 0.4605 -0.7958
v 1.0316 0.5386 0.1385
v 1.0387 0.5399 -0.1394
v 0.9488 0.7484 0
vn -0.7915 0.4355 0.4288
vn -0.4029 0.6326 0.6615
vn -0.6972 0.5778 0.4243
vn -0.574 0.5885 -0.5694
vn -0.4157 0.3686 -0.8315
vn -0.7524 0.2823 -0.5951
vn -0.5383 0.5927 -0.599
vn -0.8501 0.5244 0.0487
vn -0.5549 0.6652 -0.4996
vn -0.8396 0.4085 0.3581
vn -0.9748 0.2187 -0.0435
vn -0.8384 0.3994 0.3708
vn -0.9039 0.348 -0.2487
vn 0.7667 -0.1077 0.6329
vn 0.425 0.1318 0.8956
vn 0.7488 0.0176 0.6625
vn -0.319 0.2992 0.8993
vn 0.0442 -0.2437 0.9688
vn -0.1178 0.3128 0.9425
vn -0.7658 0.1674 0.6209
vn -0.2611 -0.3157 0.9122
vn -0.351 0.3877 0.8524
vn -0.4985 0.1557 0.8528
vn 0.082 -0.5861 0.8061
vn 0.0765 -0.0604 0.9952
vn -0.0997 -0.4086 0.9072
vn -0.0221 -0.4078 0.9128
vn -0.277 0.3783 0.8833
vn -0.1565 -0.3005 0.9409
vn 0.1011 -0.1184 0.9878
vn -0.096 -0.1269 0.9873
vn -0.7603 -0.5629 0.3243
vn -0.9754 -0.2159 -0.0435
vn -0.664 -0.5915 0.4575
vn -0.7443 -0.4411 0.5014
vn -0.5675 -0.5284 -0.6315
vn -0.5238 -0.6363 -0.5664
vn -0.942 -0.3312 0.0539
vn -0.5743 -0.5514 -0.6051
vn 0 -1 0
vn 0 -1 0
vn -0.0316 -0.9976 -0.0618
vn 0 -1 0
vn -0.9665 -0.2425 -0.0841
vn -0.525 -0.6534 -0.5454
vn -0.6582 -0.6526 0.3755
vn -0.9537 -0.2889 -0.0838
vn -0.3793 -0.0983 -0.92
vn -0.3727 0.2202 -0.9014
vn -0.5832 0.0067 -0.8123
vn -0.5311 -0.1064 -0.8406
vn -0.1378 0.3901 -0.9104
vn -0.2639 0.5474 -0.7942
vn -0.1823 0.5513 -0.8142
vn -0.0461 -0.6102 -0.7909
vn -0.3617 -0.3043 -0.8812
vn -0.1524 -0.0924 -0.984
vn -0.2162 -0.3176 -0.9232
vn -0.4477 0.2245 -0.8655
vn -0.2535 0.1558 -0.9547
vn -0.4901 0.0066 -0.8716
vn -0.4263 0.1554 -0.8911
vn 0.6964 0.3498 -0.6266
vn 0.5683 0.5733 -0.5902
vn 0.558 0.5752 -0.5981
vn 0 -1 0
vn 0 -1 0
vn 0 -1 0
vn 0 -1 0
vn 0.7393 -0.2105 0.6396
vn 0.5555 -0.3421 0.7579
vn 0.7173 -0.56 0.4146
vn 0.705 -0.2995 0.6429
vn 0.0695 -0.9917 0.1079
vn 0 -1 0
vn 0.4248 -0.7236 0.544
vn 0.0142 -0.9884 0.1511
vn 0.0929 -0.9771 0.1915
vn 0.2865 -0.713 0.6399
vn 0 -1 0
vn 0.1676 -0.9768 0.1333
vn 0 -1 0
vn 0 -1 0
vn 0 -1 0
vn 0 -1 0
vn 0 -1 0
vn 0 -1 0
vn 0 -1 0
vn 0 -1 0
vn 0 -1 0
vn 0 -1 0
vn 0 -1 0
vn 0 -1 0
vn 0 -1 0
vn 0 -1 0
vn 0 -1 0
vn 0 -1 0
vn 0 -1 0
vn 0 -1 0
vn 0 -1 0
vn 0 -1 0
vn 0 -1 0
vn 0 -1 0
vn 0 -1 0
vn 0 -1 0
vn 0 -1 0
vn 0 -1 0
vn 0 -1 0
vn 0 -1 0
vn 0 -1 0
vn 0 -1 0
vn 0 -1 0
vn 0 -1 0
vn 0 -1 0
vn 0 -1 0
vn 0 -1 0
vn 0 -1 0
vn 0.214 -0.9542 -0.2088
vn 0.2848 -0.8102 -0.5123
vn 0 -1 0
vn 0.0514 -0.9409 -0.3347
vn 0.7913 -0.3842 -0.4757
vn 0.7107 -0.6532 -0.2613
vn 0.2353 -0.5403 -0.8079
vn 0.745 -0.4681 -0.4752
vn 0 -1 0
vn 0.0499 -0.7583 -0.65
vn 0.0194 -0.9963 -0.0834
vn 0.057 -0.9974 -0.044
vn 0 -1 0
vn 0 -1 0
vn 0 -1 0
vn 0 -1 0
vn 0.8034 -0.3782 -0.4599
vn 0.6809 -0.6529 -0.3318
vn 0.7984 -0.5919 -0.1105
vn 0.7967 -0.5943 -0.1101
vn 0.6096 -0.2621 0.7482
vn 0.8063 -0.5149 0.2912
vn 0.6859 -0.6638 0.2984
vn 0.7105 -0.6552 0.2566
vn 0.773 -0.6338 -0.0264
vn 0.6141 -0.7891 -0.0121
vn 0.755 -0.6544 0.0411
vn 0.7781 -0.628 -0.0142
vn -0.0203 -0.588 0.8086
vn 0.3797 -0.4478 0.8095
vn -0.0612 -0.0605 0.9963
vn 0.0549 -0.4646 0.8838
vn 0.7313 -0.1773 0.6587
vn 0.3902 0.0404 0.9198
vn 0.4938 -0.1339 0.8592
vn 0.4778 -0.1637 0.8631
vn 0.1283 -0.2419 0.9618
vn 0.2837 0.3924 0.8749
vn 0.3215 0.3888 0.8634
vn 0.5328 -0.1346 0.8355
vn 0.4451 0.0409 0.8945
vn -0.0051 0.07 0.9975
vn 0.4569 0.0736 0.8865
vn 0 -1 0
vn 0 -1 0
vn 0 -1 0
vn 0 -1 0
vn -0.0421 -0.997 0.0656
vn -0.2337 -0.904 0.3581
vn 0 -1 0
vn -0.0011 -0.9954 0.096
vn -0.8417 -0.5079 0.1831
vn -0.873 -0.4616 0.1577
vn -0.3364 -0.6216 0.7074
vn -0.879 -0.4428 0.1769
vn 0 -1 0
vn -0.0515 -0.8739 0.4834
vn 0 -1 0
vn 0 -1 0
vn -0.0926 -0.9892 -0.1136
vn 0 -1 0
vn -0.4379 -0.6776 -0.5908
vn -0.0086 -0.9843 -0.1766
vn 0 -1 0
vn -0.0522 -0.9971 -0.0552
vn 0 -1 0
vn 0 -1 0
vn -0.4967 -0.5367 -0.6821
vn -0.6915 -0.3597 -0.6265
vn -0.599 -0.6273 -0.4977
vn -0.5858 -0.3891 -0.7109
vn 0 -1 0
vn -0.1473 -0.9374 -0.3155
vn -0.4711 -0.6776 -0.5647
vn -0.3301 -0.9298 -0.163
vn 0.645 0.1351 -0.7521
vn 0.2143 -0.4585 -0.8624
vn 0.4974 0.2141 -0.8407
vn 0.5434 0.1305 -0.8292
vn 0.243 -0.5925 -0.768
vn 0.212 -0.0914 -0.973
vn 0.2108 -0.4886 -0.8467
vn 0.3128 -0.4812 -0.8189
vn 0.2369 0.274 -0.9321
vn -0.072 0.3928 -0.9168
vn -0.1049 0.2831 -0.9533
vn 0.228 -0.4611 -0.8575
vn 0.1765 -0.1716 -0.9692
vn 0.2719 0.2008 -0.9412
vn 0.1294 -0.1701 -0.9769
vn 0.6315 -0.023 0.7751
vn 0.8357 0.4116 0.3636
vn 0.8405 0.4087 0.3556
vn 0.8307 0.2896 -0.4756
vn 0.8422 0.3497 -0.4104
vn 0.846 0.3474 -0.4045
vn 0.79 0.6126 0.0231
vn -0.2386 0.9605 -0.1431
vn -0.7928 0.4738 0.3835
vn -0.3198 0.9364 0.1443
vn -0.3053 0.9381 0.1637
vn -0.7022 0.4549 0.5477
vn -0.0238 0.3466 0.9377
vn -0.2772 0.7435 0.6085
vn -0.3043 0.25 0.9192
vn -0.1911 0.397 0.8977
vn -0.7651 0.3296 0.5532
vn -0.6308 0.2645 0.7295
vn -0.3517 0.7512 0.5585
vn -0.6562 0.3562 0.6652
vn -0.1633 0.9723 -0.1676
vn -0.1296 0.9902 0.0529
vn -0.3669 0.9299 -0.0252
vn -0.1322 0.9815 -0.1388
vn 0.2141 0.5515 0.8062
vn 0.2426 0.747 0.6191
vn -0.0422 0.8856 0.4625
vn 0.2138 0.7346 0.644
vn 0.1785 0.9834 0.0339
vn 0.2784 0.9549 0.1031
vn 0.1586 0.9534 0.2566
vn 0.1658 0.9851 0.045
vn -0.0377 0.9914 0.1253
vn 0.2253 0.9527 0.2038
vn 0.0328 0.9546 0.2962
vn 0.032 0.9964 0.0784
vn -0.1635 0.9736 -0.1596
vn -0.3605 0.9136 -0.1882
vn -0.1996 0.8734 -0.4443
vn -0.2185 0.9691 -0.1141
vn 0.1742 0.9598 -0.2199
vn 0.1753 0.9227 -0.3433
vn 0.2704 0.9272 -0.2594
vn 0.1827 0.9598 -0.2133
vn -0.1448 0.7058 -0.6935
vn -0.1353 0.6062 -0.7838
vn 0.0497 0.7463 -0.6638
vn -0.145 0.6119 -0.7775
vn -0.0041 0.8898 -0.4563
vn 0.0494 0.901 -0.431
vn -0.1409 0.8637 -0.4838
vn -0.0042 0.9189 -0.3944
vn -0.3396 0.9063 -0.2516
vn -0.3929 0.737 -0.5499
vn -0.6248 0.358 -0.6939
vn -0.3661 0.7328 -0.5735
vn -0.2412 0.624 -0.7432
vn -0.2861 0.644 -0.7095
vn -0.2591 0.4865 -0.8344
vn -0.2967 0.6341 -0.714
vn -0.761 0.5242 -0.3823
vn -0.3675 0.5023 -0.7827
vn -0.2352 0.6347 -0.7361
vn -0.6693 0.646 -0.3671
vn -0.238 0.6518 -0.7201
vn -0.311 0.9052 -0.2895
vn -0.6237 0.3583 -0.6946
vn -0.8714 0.4214 0.2514
vn -0.5927 0.731 -0.338
vn -0.6182 0.5686 -0.5426
vn -0.8416 0.3915 0.3721
vn -0.5893 0.4226 -0.6886
vn -0.8424 0.4772 0.2502
vn -0.9492 0.188 -0.2524
vn 0.3533 0.9285 0.1142
vn 0.3767 0.8462 0.3768
vn 0.5802 0.6723 0.4599
vn 0.3904 0.8468 0.3613
vn 0.3113 0.4486 0.8378
vn 0.3269 0.5695 0.7542
vn 0.4387 0.5563 0.7058
vn 0.4152 0.4679 0.7802
vn 0.8284 0.346 0.4405
vn 0.3648 0.5497 0.7515
vn 0.2016 0.5469 0.8126
vn 0.5783 0.7118 0.3987
vn 0.2265 0.6976 0.6797
vn -0.0485 0.442 0.8957
vn -0.2114 0.5045 -0.8371
vn -0.1526 0.7105 -0.6869
vn 0.0623 0.7378 -0.6721
vn 0.3206 0.6001 -0.7329
vn 0.0768 0.7929 -0.6045
vn 0.3303 0.8934 -0.3045
vn 0.5127 0.6317 -0.5815
vn 0.3785 0.8049 -0.4571
vn 0.3475 0.8007 -0.4879
vn 0.5582 0.5889 -0.5845
vn 0.3792 0.793 -0.4768
vn 0.5136 0.6423 -0.5689
vn 0.5382 0.6113 -0.5802
vn 0.5398 0.6405 -0.5463
vn 0.3044 0.4216 0.8542
vn -0.2188 0.5037 -0.8357
vn 0.874 0.3166 0.3686
vn 0.7607 0.5346 -0.3681
vn 0.4743 0.8749 -0.0985
vn 0.7933 0.5862 0.1646
vn 0.7425 0.5792 -0.3365
vn 0.6757 0.7293 -0.1075
vn 0.7601 0.5544 -0.3389
vn 0.8738 0.4561 0.1684
vn 0.924 0.3815 0.0254
usemtl rock
f 12//1 46//1 48//1
f 14//2 47//2 46//2
f 46//3 47//3 48//3
f 11//4 70//4 72//4
f 20//5 72//5 71//5
f 70//6 71//6 72//6
f 11//7 74//7 70//7
f 22//8 75//8 74//8
f 74//9 75//9 70//9
f 12//10 48//10 77//10
f 22//11 77//11 76//11
f 48//12 76//12 77//12
f 22//13 76//13 75//13
f 10//14 82//14 84//14
f 23//15 84//15 83//15
f 82//16 83//16 84//16
f 14//17 85//17 51//17
f 26//18 86//18 85//18
f 51//19 85//19 86//19
f 12//20 87//20 46//20
f 25//21 88//21 87//21
f 14//22 46//22 88//22
f 87//23 88//23 46//23
f 5//24 89//24 91//24
f 26//25 90//25 89//25
f 25//26 91//26 90//26
f 89//27 90//27 91//27
f 14//28 88//28 85//28
f 25//29 90//29 88//29
f 26//30 85//30 90//30
f 88//31 90//31 85//31
f 12//32 77//32 93//32
f 22//33 92//33 77//33
f 28//34 93//34 92//34
f 77//35 92//35 93//35
f 11//36 94//36 74//36
f 27//37 95//37 94//37
f 22//38 74//38 95//38
f 94//39 95//39 74//39
f 3//40 96//40 98//40
f 28//41 97//41 96//41
f 27//42 98//42 97//42
f 96//43 97//43 98//43
f 22//44 95//44 92//44
f 27//45 97//45 95//45
f 28//46 92//46 97//46
f 95//47 97//47 92//47
f 11//48 72//48 100//48
f 20//49 99//49 72//49
f 30//50 100//50 99//50
f 72//51 99//51 100//51
f 29//52 102//52 101//52
f 20//53 68//53 102//53
f 101//54 102//54 68//54
f 7//55 103//55 105//55
f 30//56 104//56 103//56
f 29//57 105//57 104//57
f 103//58 104//58 105//58
f 20//59 102//59 99//59
f 29//60 104//60 102//60
f 30//61 99//61 104//61
f 102//62 104//62 99//62
f 9//63 110//63 112//63
f 32//64 111//64 110//64
f 110//65 111//65 112//65
f 4//66 113//66 115//66
f 33//67 114//67 113//67
f 35//68 115//68 114//68
f 113//69 114//69 115//69
f 10//70 116//70 118//70
f 34//71 117//71 116//71
f 33//72 118//72 117//72
f 116//73 117//73 118//73
f 5//74 119//74 121//74
f 35//75 120//75 119//75
f 34//76 121//76 120//76
f 119//77 120//77 121//77
f 33//78 117//78 114//78
f 34//79 120//79 117//79
f 35//80 114//80 120//80
f 117//81 120//81 114//81
f 4//82 115//82 123//82
f 35//83 122//83 115//83
f 37//84 123//84 122//84
f 115//85 122//85 123//85
f 5//86 124//86 119//86
f 36//87 125//87 124//87
f 35//88 119//88 125//88
f 124//89 125//89 119//89
f 3//90 126//90 128//90
f 37//91 127//91 126//91
f 36//92 128//92 127//92
f 126//93 127//93 128//93
f 35//94 125//94 122//94
f 36//95 127//95 125//95
f 37//96 122//96 127//96
f 125//97 127//97 122//97
f 4//98 123//98 130//98
f 37//99 129//99 123//99
f 39//100 130//100 129//100
f 123//101 129//101 130//101
f 3//102 131//102 126//102
f 38//103 132//103 131//103
f 37//104 126//104 132//104
f 131//105 132//105 126//105
f 7//106 133//106 135//106
f 39//107 134//107 133//107
f 38//108 135//108 134//108
f 133//109 134//109 135//109
f 37//110 132//110 129//110
f 38//111 134//111 132//111
f 39//112 129//112 134//112
f 132//113 134//113 129//113
f 4//114 130//114 137//114
f 39//115 136//115 130//115
f 41//116 137//116 136//116
f 130//117 136//117 137//117
f 7//118 138//118 133//118
f 40//119 139//119 138//119
f 39//120 133//120 139//120
f 138//121 139//121 133//121
f 9//122 140//122 142//122
f 41//123 141//123 140//123
f 40//124 142//124 141//124
f 140//125 141//125 142//125
f 39//126 139//126 136//126
f 40//127 141//127 139//127
f 41//128 136//128 141//128
f 139//129 141//129 136//129
f 4//130 137//130 113//130
f 41//131 143//131 137//131
f 33//132 113//132 143//132
f 137//133 143//133 113//133
f 9//134 144//134 140//134
f 42//135 145//135 144//135
f 41//136 140//136 145//136
f 144//137 145//137 140//137
f 10//138 118//138 147//138
f 33//139 146//139 118//139
f 42//140 147//140 146//140
f 118//141 146//141 147//141
f 41//142 145//142 143//142
f 42//143 146//143 145//143
f 33//144 143//144 146//144
f 145//145 146//145 143//145
f 5//146 121//146 89//146
f 34//147 148//147 121//147
f 26//148 89//148 148//148
f 121//149 148//149 89//149
f 10//150 84//150 116//150
f 23//151 149//151 84//151
f 34//152 116//152 149//152
f 84//153 149//153 116//153
f 26//154 150//154 86//154
f 23//155 80//155 150//155
f 86//156 150//156 80//156
f 34//157 149//157 148//157
f 23//158 150//158 149//158
f 26//159 148//159 150//159
f 149//160 150//160 148//160
f 3//161 128//161 96//161
f 36//162 151//162 128//162
f 28//163 96//163 151//163
f 128//164 151//164 96//164
f 5//165 91//165 124//165
f 25//166 152//166 91//166
f 36//167 124//167 152//167
f 91//168 152//168 124//168
f 12//169 93//169 87//169
f 28//170 153//170 93//170
f 25//171 87//171 153//171
f 93//172 153//172 87//172
f 36//173 152//173 151//173
f 25//174 153//174 152//174
f 28//175 151//175 153//175
f 152//176 153//176 151//176
f 7//177 135//177 103//177
f 38//178 154//178 135//178
f 30//179 103//179 154//179
f 135//180 154//180 103//180
f 3//181 98//181 131//181
f 27//182 155//182 98//182
f 38//183 131//183 155//183
f 98//184 155//184 131//184
f 11//185 100//185 94//185
f 30//186 156//186 100//186
f 27//187 94//187 156//187
f 100//188 156//188 94//188
f 38//189 155//189 154//189
f 27//190 156//190 155//190
f 30//191 154//191 156//191
f 155//192 156//192 154//192
f 9//193 142//193 110//193
f 40//194 157//194 142//194
f 32//195 110//195 157//195
f 142//196 157//196 110//196
f 7//197 105//197 138//197
f 29//198 158//198 105//198
f 40//199 138//199 158//199
f 105//200 158//200 138//200
f 32//201 159//201 107//201
f 29//202 101//202 159//202
f 107//203 159//203 101//203
f 40//204 158//204 157//204
f 29//205 159//205 158//205
f 32//206 157//206 159//206
f 158//207 159//207 157//207
f 10//208 147//208 82//208
f 42//209 160//209 147//209
f 147//210 160//210 82//210
f 9//211 112//211 144//211
f 42//212 144//212 161//212
f 112//213 161//213 144//213
f 42//214 161//214 160//214
usemtl rock_moss
f 1//215 43//215 45//215
f 13//216 44//216 43//216
f 15//217 45//217 44//217
f 43//218 44//218 45//218
f 13//219 48//219 47//219
f 6//220 49//220 51//220
f 15//221 50//221 49//221
f 14//222 51//222 50//222
f 49//223 50//223 51//223
f 13//224 47//224 44//224
f 14//225 50//225 47//225
f 15//226 44//226 50//226
f 47//227 50//227 44//227
f 1//228 45//228 53//228
f 15//229 52//229 45//229
f 17//230 53//230 52//230
f 45//231 52//231 53//231
f 6//232 54//232 49//232
f 16//233 55//233 54//233
f 15//234 49//234 55//234
f 54//235 55//235 49//235
f 2//236 56//236 58//236
f 17//237 57//237 56//237
f 16//238 58//238 57//238
f 56//239 57//239 58//239
f 15//240 55//240 52//240
f 16//241 57//241 55//241
f 17//242 52//242 57//242
f 55//243 57//243 52//243
f 1//244 53//244 60//244
f 17//245 59//245 53//245
f 19//246 60//246 59//246
f 53//247 59//247 60//247
f 2//248 61//248 56//248
f 18//249 62//249 61//249
f 17//250 56//250 62//250
f 61//251 62//251 56//251
f 8//252 63//252 65//252
f 19//253 64//253 63//253
f 18//254 65//254 64//254
f 63//255 64//255 65//255
f 17//256 62//256 59//256
f 18//257 64//257 62//257
f 19//258 59//258 64//258
f 62//259 64//259 59//259
f 1//260 60//260 67//260
f 19//261 66//261 60//261
f 21//262 67//262 66//262
f 60//263 66//263 67//263
f 8//264 68//264 63//264
f 20//265 69//265 68//265
f 19//266 63//266 69//266
f 68//267 69//267 63//267
f 21//268 71//268 70//268
f 19//269 69//269 66//269
f 20//270 71//270 69//270
f 21//271 66//271 71//271
f 69//272 71//272 66//272
f 1//273 67//273 43//273
f 21//274 73//274 67//274
f 13//275 43//275 73//275
f 67//276 73//276 43//276
f 21//277 70//277 75//277
f 13//278 76//278 48//278
f 21//279 75//279 73//279
f 13//280 73//280 76//280
f 75//281 76//281 73//281
f 2//282 58//282 79//282
f 16//283 78//283 58//283
f 24//284 79//284 78//284
f 58//285 78//285 79//285
f 6//286 80//286 54//286
f 23//287 81//287 80//287
f 16//288 54//288 81//288
f 80//289 81//289 54//289
f 24//290 83//290 82//290
f 16//291 81//291 78//291
f 23//292 83//292 81//292
f 24//293 78//293 83//293
f 81//294 83//294 78//294
f 6//295 51//295 86//295
f 8//296 101//296 68//296
f 8//297 65//297 107//297
f 18//298 106//298 65//298
f 32//299 107//299 106//299
f 65//300 106//300 107//300
f 2//301 108//301 61//301
f 31//302 109//302 108//302
f 18//303 61//303 109//303
f 108//304 109//304 61//304
f 31//305 112//305 111//305
f 18//306 109//306 106//306
f 31//307 111//307 109//307
f 32//308 106//308 111//308
f 109//309 111//309 106//309
f 6//310 86//310 80//310
f 8//311 107//311 101//311
f 24//312 82//312 160//312
f 31//313 161//313 112//313
f 2//314 79//314 108//314
f 24//315 162//315 79//315
f 31//316 108//316 162//316
f 79//317 162//317 108//317
f 31//318 162//318 161//318
f 24//319 160//319 162//319
f 161//320 162//320 160//320
