mtllib tree.mtl
o tree
v 0.062 0 0
v 0.031 0 0.0537
v -0.031 0 0.0537
v -0.062 0 0
v -0.031 0 -0.0537
v 0.031 0 -0.0537
v 0.04 0.46 0
v 0.02 0.46 0.0346
v -0.02 0.46 0.0346
v -0.04 0.46 0
v -0.02 0.46 -0.0346
v 0.02 0.46 -0.0346
v 0.34 0.2852 0
v 0.17 0.2852 0.2944
v -0.17 0.2852 0.2944
v -0.34 0.2852 0
v -0.17 0.2852 -0.2944
v 0.17 0.2852 -0.2944
v 0 0.7452 0
v 0 0.2452 0
v 0.23 0.4692 0
v 0.115 0.4692 0.1992
v -0.115 0.4692 0.1992
v -0.23 0.4692 0
v -0.115 0.4692 -0.1992
v 0.115 0.4692 -0.1992
v 0 0.8492 0
v 0 0.4292 0
vn 0.8653 0.0414 0.4996
vn 0.8653 0.0414 0.4996
vn 0 0.0414 0.9991
vn 0 0.0414 0.9991
vn -0.8653 0.0414 0.4996
vn -0.8653 0.0414 0.4996
vn -0.8653 0.0414 -0.4996
vn -0.8653 0.0414 -0.4996
vn 0 0.0414 -0.9991
vn 0 0.0414 -0.9991
vn 0.8653 0.0414 -0.4996
vn 0.8653 0.0414 -0.4996
vn 0.7294 0.5391 0.4211
vn 0 0.5391 0.8422
vn -0.7294 0.5391 0.4211
vn -0.7294 0.5391 -0.4211
vn 0 0.5391 -0.8422
vn 0.7294 0.5391 -0.4211
vn 0.1166 -0.9909 0.0673
vn 0 -0.9909 0.1346
vn -0.1166 -0.9909 0.0673
vn -0.1166 -0.9909 -0.0673
vn 0 -0.9909 -0.1346
vn 0.1166 -0.9909 -0.0673
vn 0.767 0.4643 0.4428
vn 0 0.4643 0.8857
vn -0.767 0.4643 0.4428
vn -0.767 0.4643 -0.4428
vn 0 0.4643 -0.8857
vn 0.767 0.4643 -0.4428
vn 0.1705 -0.9804 0.0984
vn 0 -0.9804 0.1969
vn -0.1705 -0.9804 0.0984
vn -0.1705 -0.9804 -0.0984
vn 0 -0.9804 -0.1969
vn 0.1705 -0.9804 -0.0984
usemtl bark
f 1//1 7//1 8//1
f 1//2 8//2 2//2
f 2//3 8//3 9//3
f 2//4 9//4 3//4
f 3//5 9//5 10//5
f 3//6 10//6 4//6
f 4//7 10//7 11//7
f 4//8 11//8 5//8
f 5//9 11//9 12//9
f 5//10 12//10 6//10
f 6//11 12//11 7//11
f 6//12 7//12 1//12
usemtl foliage_low
f 13//13 19//13 14//13
f 14//14 19//14 15//14
f 15//15 19//15 16//15
f 16//16 19//16 17//16
f 17//17 19//17 18//17
f 18//18 19//18 13//18
f 14//19 20//19 13//19
f 15//20 20//20 14//20
f 16//21 20//21 15//21
f 17//22 20//22 16//22
f 18//23 20//23 17//23
f 13//24 20//24 18//24
usemtl foliage_high
f 21//25 27//25 22//25
f 22//26 27//26 23//26
f 23//27 27//27 24//27
f 24//28 27//28 25//28
f 25//29 27//29 26//29
f 26//30 27//30 21//30
f 22//31 28//31 21//31
f 23//32 28//32 22//32
f 24//33 28//33 23//33
f 25//34 28//34 24//34
f 26//35 28//35 25//35
f 21//36 28//36 26//36
